<svg width="400" height="600" xmlns="http://www.w3.org/2000/svg" style="background-color: #AABBCC"><rect width="200" height="200" fill="#AABBCC"></rect><text x="100" y="12" text-anchor="middle" font-size="11" font-weight="bold" fill="#260A39">Monthly Sales</text><text x="25" y="12" text-anchor="middle" font-size="6" font-weight="bold">Months</text><text x="187" y="175" text-anchor="middle" font-size="6" font-weight="bold">Sales (TL)<tspan x="25" y="153" writing-mode="tb" font-size="2">1200</tspan><tspan x="45" y="149" writing-mode="tb" font-size="2">1500</tspan><tspan x="65" y="69" writing-mode="tb" font-size="2">7500</tspan><tspan x="85" y="113" writing-mode="tb" font-size="2">4200</tspan><tspan x="105" y="95" writing-mode="tb" font-size="2">5600</tspan><tspan x="125" y="140" writing-mode="tb" font-size="2">2200</tspan><tspan x="145" y="100" writing-mode="tb" font-size="2">5200</tspan></text><g stroke-width="1.5"><rect x="160" y="5" width="6" height="6" fill="#FF0000" stroke="black"></rect><rect x="160" y="12" width="6" height="6" fill="#00CCDD" stroke="black"></rect><rect x="160" y="19" width="6" height="6" fill="#00DDCC" stroke="black"></rect></g><rect x="25" y="159" width="5" height="16" fill="#FF0000" stroke="black"></rect><rect x="45" y="155" width="5" height="20" fill="#FF0000" stroke="black"></rect><rect x="65" y="75" width="5" height="100" fill="#FF0000" stroke="black"></rect><rect x="85" y="119" width="5" height="56" fill="#FF0000" stroke="black"></rect><rect x="105" y="101" width="5" height="74" fill="#FF0000" stroke="black"></rect><rect x="125" y="146" width="5" height="29" fill="#FF0000" stroke="black"></rect><rect x="145" y="106" width="5" height="69" fill="#FF0000" stroke="black"></rect><rect x="30" y="49" width="5" height="126" fill="#00CCDD" stroke="black"></rect><rect x="50" y="89" width="5" height="86" fill="#00CCDD" stroke="black"></rect><rect x="70" y="25" width="5" height="150" fill="#00CCDD" stroke="black"></rect><rect x="90" y="133" width="5" height="42" fill="#00CCDD" stroke="black"></rect><rect x="110" y="101" width="5" height="74" fill="#00CCDD" stroke="black"></rect><rect x="130" y="119" width="5" height="56" fill="#00CCDD" stroke="black"></rect><rect x="150" y="53" width="5" height="122" fill="#00CCDD" stroke="black"></rect><rect x="35" y="135" width="5" height="40" fill="#00DDCC" stroke="black"></rect><rect x="55" y="135" width="5" height="40" fill="#00DDCC" stroke="black"></rect><rect x="75" y="95" width="5" height="80" fill="#00DDCC" stroke="black"></rect><rect x="95" y="135" width="5" height="40" fill="#00DDCC" stroke="black"></rect><rect x="115" y="42" width="5" height="133" fill="#00DDCC" stroke="black"></rect><rect x="135" y="82" width="5" height="93" fill="#00DDCC" stroke="black"></rect><rect x="155" y="122" width="5" height="53" fill="#00DDCC" stroke="black"></rect><g font-size="5"><text><tspan x="25" y="177" writing-mode="tb" font-weight="bold">January</tspan><tspan x="45" y="177" writing-mode="tb" font-weight="bold">February</tspan><tspan x="65" y="177" writing-mode="tb" font-weight="bold">March</tspan><tspan x="85" y="177" writing-mode="tb" font-weight="bold">April</tspan><tspan x="105" y="177" writing-mode="tb" font-weight="bold">May</tspan><tspan x="125" y="177" writing-mode="tb" font-weight="bold">June</tspan><tspan x="145" y="177" writing-mode="tb" font-weight="bold">July</tspan></text><text><tspan x="15" y="25" text-anchor="middle" font-size="6" font-weight="bold">11250</tspan><tspan x="15" y="46" text-anchor="middle" font-size="6" font-weight="bold">9643</tspan><tspan x="15" y="67" text-anchor="middle" font-size="6" font-weight="bold">8036</tspan><tspan x="15" y="88" text-anchor="middle" font-size="6" font-weight="bold">6429</tspan><tspan x="15" y="109" text-anchor="middle" font-size="6" font-weight="bold">4822</tspan><tspan x="15" y="130" text-anchor="middle" font-size="6" font-weight="bold">3215</tspan><tspan x="15" y="151" text-anchor="middle" font-size="6" font-weight="bold">1608</tspan></text><text x="170" y="10" font-weight="bold">January</text><text x="170" y="17" font-weight="bold">February</text><text x="170" y="24" font-weight="bold">March</text></g><line x1="25" y1="25" x2="175" y2="25" style="stroke:rgb(0,0,0);stroke-dasharray:10,2 ;stroke-width:0.5" font-size="6" font-weight="bold"></line><line x1="25" y1="46" x2="175" y2="46" style="stroke:rgb(0,0,0);stroke-dasharray:10,2 ;stroke-width:0.5" font-size="6" font-weight="bold"></line><line x1="25" y1="67" x2="175" y2="67" style="stroke:rgb(0,0,0);stroke-dasharray:10,2 ;stroke-width:0.5" font-size="6" font-weight="bold"></line><line x1="25" y1="88" x2="175" y2="88" style="stroke:rgb(0,0,0);stroke-dasharray:10,2 ;stroke-width:0.5" font-size="6" font-weight="bold"></line><line x1="25" y1="109" x2="175" y2="109" style="stroke:rgb(0,0,0);stroke-dasharray:10,2 ;stroke-width:0.5" font-size="6" font-weight="bold"></line><line x1="25" y1="130" x2="175" y2="130" style="stroke:rgb(0,0,0);stroke-dasharray:10,2 ;stroke-width:0.5" font-size="6" font-weight="bold"></line><line x1="25" y1="151" x2="175" y2="151" style="stroke:rgb(0,0,0);stroke-dasharray:10,2 ;stroke-width:0.5" font-size="6" font-weight="bold"></line><line x1="25" y1="175" x2="175" y2="175" stroke="black" stroke-width="3"></line><line x1="25" y1="25" x2="25" y2="175" stroke="black" stroke-width="3"></line></svg>
