<svg width="400" height="600" xmlns="http://www.w3.org/2000/svg" style="background-color: #AABBCC"><text x="10" y="15" fill="red">Monthly Sales</text><line x1="80" x2="300" y1="200" y2="200" style="stroke:rgb(255,0,0);stroke-width:3"></line><line x1="80" x2="80" y1="20" y2="200" style="stroke:rgb(255,0,0);stroke-width:3"></line><text x="220" y="-84" fill="white" transform="rotate(90 20,10)">January</text><text x="220" y="-108" fill="white" transform="rotate(90 20,10)">February</text><text x="220" y="-132" fill="white" transform="rotate(90 20,10)">March</text><text x="220" y="-157" fill="white" transform="rotate(90 20,10)">April</text><text x="220" y="-181" fill="white" transform="rotate(90 20,10)">May</text><text x="220" y="-205" fill="white" transform="rotate(90 20,10)">June</text><text x="220" y="-230" fill="white" transform="rotate(90 20,10)">July</text><text x="50" y="172" fill="white" style="font-size:8px">2250</text><line x1="80" x2="300" y1="172" y2="172" style="stroke:rgb(100, 100, 100);stroke-width:1" stroke-dasharray="1, 2"></line><text x="50" y="136" fill="white" style="font-size:8px">4500</text><line x1="80" x2="300" y1="136" y2="136" style="stroke:rgb(100, 100, 100);stroke-width:1" stroke-dasharray="1, 2"></line><text x="50" y="100" fill="white" style="font-size:8px">6750</text><line x1="80" x2="300" y1="100" y2="100" style="stroke:rgb(100, 100, 100);stroke-width:1" stroke-dasharray="1, 2"></line><text x="50" y="64" fill="white" style="font-size:8px">9000</text><line x1="80" x2="300" y1="64" y2="64" style="stroke:rgb(100, 100, 100);stroke-width:1" stroke-dasharray="1, 2"></line><text x="50" y="28" fill="white" style="font-size:8px">11250</text><line x1="80" x2="300" y1="28" y2="28" style="stroke:rgb(100, 100, 100);stroke-width:1" stroke-dasharray="1, 2"></line><rect x="310" y="30" width="20" height="20" stroke="black" stroke-width="1" fill="#FF0000"></rect><text x="335" y="47" fill="red">İzmir</text><rect x="310" y="60" width="20" height="20" stroke="black" stroke-width="1" fill="#00CCDD"></rect><text x="335" y="77" fill="red">İstanbul</text><rect x="310" y="90" width="20" height="20" stroke="black" stroke-width="1" fill="#00DDCC"></rect><text x="335" y="107" fill="red">Edro</text><polyline style="fill:none;stroke:#FF0000;stroke-width:3" points=" 80,200 104,181 128,176 152,80 177,133 201,111 225,165 250,117"></polyline><polyline style="fill:none;stroke:#00CCDD;stroke-width:3" points=" 80,200 104,48 128,96 152,20 177,149 201,111 225,133 250,53"></polyline><polyline style="fill:none;stroke:#00DDCC;stroke-width:3" points=" 80,200 104,152 128,152 152,104 177,152 201,40 225,88 250,136"></polyline></svg>
