<svg width="400" height="600" xmlns="http://www.w3.org/2000/svg" style="background-color: #AABBCC"><text x="10" y="30" fill="red">Monthly Sales</text><text x="100" y="65" fill="black">1200</text><rect x="150" y="50" width="20" height="20" stroke="black" stroke-width="1" fill="#FFFF00"></rect><text x="180" y="65" fill="red">January</text><path d="M50,100  L80, 100 A30,30 0 0,1 78,107 z" fill="#FFFF00"></path><text x="20" y="150" fill="white">İzmir</text><text x="100" y="85" fill="black">1500</text><rect x="150" y="70" width="20" height="20" stroke="black" stroke-width="1" fill="#5F5E5D"></rect><text x="180" y="85" fill="red">February</text><path d="M50,100  L78, 107 A30,30 0 0,1 74,116 z" fill="#5F5E5D"></path><text x="20" y="150" fill="white">İzmir</text><text x="100" y="105" fill="black">7500</text><rect x="150" y="90" width="20" height="20" stroke="black" stroke-width="1" fill="#F2EEEA"></rect><text x="180" y="105" fill="red">March</text><path d="M50,100  L74, 116 A30,30 0 0,1 29,122 z" fill="#F2EEEA"></path><text x="20" y="150" fill="white">İzmir</text><text x="100" y="125" fill="black">4200</text><rect x="150" y="110" width="20" height="20" stroke="black" stroke-width="1" fill="#B4B2AE"></rect><text x="180" y="125" fill="red">April</text><path d="M50,100  L29, 122 A30,30 0 0,1 20,96 z" fill="#B4B2AE"></path><text x="20" y="150" fill="white">İzmir</text><text x="100" y="145" fill="black">5600</text><rect x="150" y="130" width="20" height="20" stroke="black" stroke-width="1" fill="#E24A37"></rect><text x="180" y="145" fill="red">May</text><path d="M50,100  L20, 96 A30,30 0 0,1 44,70 z" fill="#E24A37"></path><text x="20" y="150" fill="white">İzmir</text><text x="100" y="165" fill="black">2200</text><rect x="150" y="150" width="20" height="20" stroke="black" stroke-width="1" fill="#231F20"></rect><text x="180" y="165" fill="red">June</text><path d="M50,100  L44, 70 A30,30 0 0,1 59,71 z" fill="#231F20"></path><text x="20" y="150" fill="white">İzmir</text><text x="100" y="185" fill="black">5200</text><rect x="150" y="170" width="20" height="20" stroke="black" stroke-width="1" fill="#F15E00"></rect><text x="180" y="185" fill="red">July</text><path d="M50,100  L59, 71 A30,30 0 0,1 80,100 z" fill="#F15E00"></path><text x="20" y="150" fill="white">İzmir</text><rect x="150" y="200" width="20" height="20" stroke="black" stroke-width="1" fill="#FFFF00"></rect><text x="180" y="215" fill="red">January</text><path d="M50,250  L80, 250 A30,30 0 0,1 60,278 z" fill="#FFFF00"></path><text x="20" y="300" fill="white">İstanbul</text><rect x="150" y="220" width="20" height="20" stroke="black" stroke-width="1" fill="#5F5E5D"></rect><text x="180" y="235" fill="red">February</text><path d="M50,250  L60, 278 A30,30 0 0,1 36,276 z" fill="#5F5E5D"></path><text x="20" y="300" fill="white">İstanbul</text><rect x="150" y="240" width="20" height="20" stroke="black" stroke-width="1" fill="#F2EEEA"></rect><text x="180" y="255" fill="red">March</text><path d="M50,250  L36, 276 A30,30 0 0,1 21,241 z" fill="#F2EEEA"></path><text x="20" y="300" fill="white">İstanbul</text><rect x="150" y="260" width="20" height="20" stroke="black" stroke-width="1" fill="#B4B2AE"></rect><text x="180" y="275" fill="red">April</text><path d="M50,250  L21, 241 A30,30 0 0,1 27,230 z" fill="#B4B2AE"></path><text x="20" y="300" fill="white">İstanbul</text><rect x="150" y="280" width="20" height="20" stroke="black" stroke-width="1" fill="#E24A37"></rect><text x="180" y="295" fill="red">May</text><path d="M50,250  L27, 230 A30,30 0 0,1 44,220 z" fill="#E24A37"></path><text x="20" y="300" fill="white">İstanbul</text><rect x="150" y="300" width="20" height="20" stroke="black" stroke-width="1" fill="#231F20"></rect><text x="180" y="315" fill="red">June</text><path d="M50,250  L44, 220 A30,30 0 0,1 60,221 z" fill="#231F20"></path><text x="20" y="300" fill="white">İstanbul</text><rect x="150" y="320" width="20" height="20" stroke="black" stroke-width="1" fill="#F15E00"></rect><text x="180" y="335" fill="red">July</text><path d="M50,250  L60, 221 A30,30 0 0,1 80,250 z" fill="#F15E00"></path><text x="20" y="300" fill="white">İstanbul</text><rect x="150" y="350" width="20" height="20" stroke="black" stroke-width="1" fill="#FFFF00"></rect><text x="180" y="365" fill="red">January</text><path d="M50,400  L80, 400 A30,30 0 0,1 75,415 z" fill="#FFFF00"></path><text x="20" y="450" fill="white">Edro</text><rect x="150" y="370" width="20" height="20" stroke="black" stroke-width="1" fill="#5F5E5D"></rect><text x="180" y="385" fill="red">February</text><path d="M50,400  L75, 415 A30,30 0 0,1 64,425 z" fill="#5F5E5D"></path><text x="20" y="450" fill="white">Edro</text><rect x="150" y="390" width="20" height="20" stroke="black" stroke-width="1" fill="#F2EEEA"></rect><text x="180" y="405" fill="red">March</text><path d="M50,400  L64, 425 A30,30 0 0,1 34,425 z" fill="#F2EEEA"></path><text x="20" y="450" fill="white">Edro</text><rect x="150" y="410" width="20" height="20" stroke="black" stroke-width="1" fill="#B4B2AE"></rect><text x="180" y="425" fill="red">April</text><path d="M50,400  L34, 425 A30,30 0 0,1 24,414 z" fill="#B4B2AE"></path><text x="20" y="450" fill="white">Edro</text><rect x="150" y="430" width="20" height="20" stroke="black" stroke-width="1" fill="#E24A37"></rect><text x="180" y="445" fill="red">May</text><path d="M50,400  L24, 414 A30,30 0 0,1 39,371 z" fill="#E24A37"></path><text x="20" y="450" fill="white">Edro</text><rect x="150" y="450" width="20" height="20" stroke="black" stroke-width="1" fill="#231F20"></rect><text x="180" y="465" fill="red">June</text><path d="M50,400  L39, 371 A30,30 0 0,1 72,380 z" fill="#231F20"></path><text x="20" y="450" fill="white">Edro</text><rect x="150" y="470" width="20" height="20" stroke="black" stroke-width="1" fill="#F15E00"></rect><text x="180" y="485" fill="red">July</text><path d="M50,400  L72, 380 A30,30 0 0,1 80,400 z" fill="#F15E00"></path><text x="20" y="450" fill="white">Edro</text></svg>
